G04 #@! TF.FileFunction,Legend,Top*
%FSLAX46Y46*%
G04 Gerber Fmt 4.6, Leading zero omitted, Abs format (unit mm)*
G04 Created by KiCad (PCBNEW 4.0.6) date Thu Jan  4 19:06:44 2018*
%MOMM*%
%LPD*%
G01*
G04 APERTURE LIST*
%ADD10C,0.100000*%
%ADD11C,0.127000*%
%ADD12C,0.150000*%
%ADD13C,0.120000*%
G04 APERTURE END LIST*
D10*
D11*
X142221857Y-87757000D02*
X142584714Y-87757000D01*
X142149285Y-87974714D02*
X142403285Y-87212714D01*
X142657285Y-87974714D01*
X143237857Y-87974714D02*
X143237857Y-87212714D01*
X143237857Y-87938429D02*
X143165286Y-87974714D01*
X143020143Y-87974714D01*
X142947571Y-87938429D01*
X142911286Y-87902143D01*
X142875000Y-87829571D01*
X142875000Y-87611857D01*
X142911286Y-87539286D01*
X142947571Y-87503000D01*
X143020143Y-87466714D01*
X143165286Y-87466714D01*
X143237857Y-87503000D01*
X143927286Y-87974714D02*
X143927286Y-87575571D01*
X143891000Y-87503000D01*
X143818429Y-87466714D01*
X143673286Y-87466714D01*
X143600715Y-87503000D01*
X143927286Y-87938429D02*
X143854715Y-87974714D01*
X143673286Y-87974714D01*
X143600715Y-87938429D01*
X143564429Y-87865857D01*
X143564429Y-87793286D01*
X143600715Y-87720714D01*
X143673286Y-87684429D01*
X143854715Y-87684429D01*
X143927286Y-87648143D01*
X144181286Y-87466714D02*
X144471572Y-87466714D01*
X144290144Y-87974714D02*
X144290144Y-87321571D01*
X144326429Y-87249000D01*
X144399001Y-87212714D01*
X144471572Y-87212714D01*
X144725573Y-87974714D02*
X144725573Y-87466714D01*
X144725573Y-87611857D02*
X144761858Y-87539286D01*
X144798144Y-87503000D01*
X144870715Y-87466714D01*
X144943287Y-87466714D01*
X145523858Y-87466714D02*
X145523858Y-87974714D01*
X145197287Y-87466714D02*
X145197287Y-87865857D01*
X145233572Y-87938429D01*
X145306144Y-87974714D01*
X145415001Y-87974714D01*
X145487572Y-87938429D01*
X145523858Y-87902143D01*
X145886716Y-87974714D02*
X145886716Y-87466714D01*
X145886716Y-87212714D02*
X145850430Y-87249000D01*
X145886716Y-87285286D01*
X145923001Y-87249000D01*
X145886716Y-87212714D01*
X145886716Y-87285286D01*
X146140715Y-87466714D02*
X146431001Y-87466714D01*
X146249573Y-87212714D02*
X146249573Y-87865857D01*
X146285858Y-87938429D01*
X146358430Y-87974714D01*
X146431001Y-87974714D01*
X147519573Y-87575571D02*
X147265573Y-87575571D01*
X147265573Y-87974714D02*
X147265573Y-87212714D01*
X147628430Y-87212714D01*
X147809858Y-87212714D02*
X148245287Y-87212714D01*
X148027573Y-87974714D02*
X148027573Y-87212714D01*
X148463001Y-87285286D02*
X148499287Y-87249000D01*
X148571858Y-87212714D01*
X148753287Y-87212714D01*
X148825858Y-87249000D01*
X148862144Y-87285286D01*
X148898429Y-87357857D01*
X148898429Y-87430429D01*
X148862144Y-87539286D01*
X148426715Y-87974714D01*
X148898429Y-87974714D01*
X149152429Y-87212714D02*
X149624143Y-87212714D01*
X149370143Y-87503000D01*
X149479001Y-87503000D01*
X149551572Y-87539286D01*
X149587858Y-87575571D01*
X149624143Y-87648143D01*
X149624143Y-87829571D01*
X149587858Y-87902143D01*
X149551572Y-87938429D01*
X149479001Y-87974714D01*
X149261286Y-87974714D01*
X149188715Y-87938429D01*
X149152429Y-87902143D01*
X149914429Y-87285286D02*
X149950715Y-87249000D01*
X150023286Y-87212714D01*
X150204715Y-87212714D01*
X150277286Y-87249000D01*
X150313572Y-87285286D01*
X150349857Y-87357857D01*
X150349857Y-87430429D01*
X150313572Y-87539286D01*
X149878143Y-87974714D01*
X150349857Y-87974714D01*
X150676429Y-87974714D02*
X150676429Y-87212714D01*
X150676429Y-87575571D02*
X151111857Y-87575571D01*
X151111857Y-87974714D02*
X151111857Y-87212714D01*
X143510000Y-89244714D02*
X143510000Y-88482714D01*
X143836571Y-88555286D02*
X143872857Y-88519000D01*
X143945428Y-88482714D01*
X144126857Y-88482714D01*
X144199428Y-88519000D01*
X144235714Y-88555286D01*
X144271999Y-88627857D01*
X144271999Y-88700429D01*
X144235714Y-88809286D01*
X143800285Y-89244714D01*
X144271999Y-89244714D01*
X145033999Y-89172143D02*
X144997713Y-89208429D01*
X144888856Y-89244714D01*
X144816285Y-89244714D01*
X144707428Y-89208429D01*
X144634856Y-89135857D01*
X144598571Y-89063286D01*
X144562285Y-88918143D01*
X144562285Y-88809286D01*
X144598571Y-88664143D01*
X144634856Y-88591571D01*
X144707428Y-88519000D01*
X144816285Y-88482714D01*
X144888856Y-88482714D01*
X144997713Y-88519000D01*
X145033999Y-88555286D01*
X145904856Y-89027000D02*
X146267713Y-89027000D01*
X145832284Y-89244714D02*
X146086284Y-88482714D01*
X146340284Y-89244714D01*
X146920856Y-89244714D02*
X146920856Y-88482714D01*
X146920856Y-89208429D02*
X146848285Y-89244714D01*
X146703142Y-89244714D01*
X146630570Y-89208429D01*
X146594285Y-89172143D01*
X146557999Y-89099571D01*
X146557999Y-88881857D01*
X146594285Y-88809286D01*
X146630570Y-88773000D01*
X146703142Y-88736714D01*
X146848285Y-88736714D01*
X146920856Y-88773000D01*
X147610285Y-89244714D02*
X147610285Y-88845571D01*
X147573999Y-88773000D01*
X147501428Y-88736714D01*
X147356285Y-88736714D01*
X147283714Y-88773000D01*
X147610285Y-89208429D02*
X147537714Y-89244714D01*
X147356285Y-89244714D01*
X147283714Y-89208429D01*
X147247428Y-89135857D01*
X147247428Y-89063286D01*
X147283714Y-88990714D01*
X147356285Y-88954429D01*
X147537714Y-88954429D01*
X147610285Y-88918143D01*
X147973143Y-88736714D02*
X147973143Y-89498714D01*
X147973143Y-88773000D02*
X148045714Y-88736714D01*
X148190857Y-88736714D01*
X148263428Y-88773000D01*
X148299714Y-88809286D01*
X148336000Y-88881857D01*
X148336000Y-89099571D01*
X148299714Y-89172143D01*
X148263428Y-89208429D01*
X148190857Y-89244714D01*
X148045714Y-89244714D01*
X147973143Y-89208429D01*
X148553714Y-88736714D02*
X148844000Y-88736714D01*
X148662572Y-88482714D02*
X148662572Y-89135857D01*
X148698857Y-89208429D01*
X148771429Y-89244714D01*
X148844000Y-89244714D01*
X149388286Y-89208429D02*
X149315715Y-89244714D01*
X149170572Y-89244714D01*
X149098001Y-89208429D01*
X149061715Y-89135857D01*
X149061715Y-88845571D01*
X149098001Y-88773000D01*
X149170572Y-88736714D01*
X149315715Y-88736714D01*
X149388286Y-88773000D01*
X149424572Y-88845571D01*
X149424572Y-88918143D01*
X149061715Y-88990714D01*
X149751144Y-89244714D02*
X149751144Y-88736714D01*
X149751144Y-88881857D02*
X149787429Y-88809286D01*
X149823715Y-88773000D01*
X149896286Y-88736714D01*
X149968858Y-88736714D01*
X143310429Y-90514714D02*
X143310429Y-89752714D01*
X143745857Y-90514714D02*
X143419286Y-90079286D01*
X143745857Y-89752714D02*
X143310429Y-90188143D01*
X144399000Y-90514714D02*
X144399000Y-90115571D01*
X144362714Y-90043000D01*
X144290143Y-90006714D01*
X144145000Y-90006714D01*
X144072429Y-90043000D01*
X144399000Y-90478429D02*
X144326429Y-90514714D01*
X144145000Y-90514714D01*
X144072429Y-90478429D01*
X144036143Y-90405857D01*
X144036143Y-90333286D01*
X144072429Y-90260714D01*
X144145000Y-90224429D01*
X144326429Y-90224429D01*
X144399000Y-90188143D01*
X144761858Y-90514714D02*
X144761858Y-90006714D01*
X144761858Y-90151857D02*
X144798143Y-90079286D01*
X144834429Y-90043000D01*
X144907000Y-90006714D01*
X144979572Y-90006714D01*
X145342429Y-90514714D02*
X145269857Y-90478429D01*
X145233572Y-90442143D01*
X145197286Y-90369571D01*
X145197286Y-90151857D01*
X145233572Y-90079286D01*
X145269857Y-90043000D01*
X145342429Y-90006714D01*
X145451286Y-90006714D01*
X145523857Y-90043000D01*
X145560143Y-90079286D01*
X145596429Y-90151857D01*
X145596429Y-90369571D01*
X145560143Y-90442143D01*
X145523857Y-90478429D01*
X145451286Y-90514714D01*
X145342429Y-90514714D01*
X146031858Y-90514714D02*
X145959286Y-90478429D01*
X145923001Y-90405857D01*
X145923001Y-89752714D01*
X146902715Y-90514714D02*
X146902715Y-89752714D01*
X147338143Y-90514714D02*
X147011572Y-90079286D01*
X147338143Y-89752714D02*
X146902715Y-90188143D01*
X147664715Y-90514714D02*
X147664715Y-90006714D01*
X147664715Y-90151857D02*
X147701000Y-90079286D01*
X147737286Y-90043000D01*
X147809857Y-90006714D01*
X147882429Y-90006714D01*
X148136429Y-90514714D02*
X148136429Y-90006714D01*
X148136429Y-89752714D02*
X148100143Y-89789000D01*
X148136429Y-89825286D01*
X148172714Y-89789000D01*
X148136429Y-89752714D01*
X148136429Y-89825286D01*
X148426714Y-90006714D02*
X148825857Y-90006714D01*
X148426714Y-90514714D01*
X148825857Y-90514714D01*
X149116143Y-90514714D02*
X149116143Y-89752714D01*
X149188714Y-90224429D02*
X149406428Y-90514714D01*
X149406428Y-90006714D02*
X149116143Y-90297000D01*
X150059571Y-90514714D02*
X150059571Y-90115571D01*
X150023285Y-90043000D01*
X149950714Y-90006714D01*
X149805571Y-90006714D01*
X149733000Y-90043000D01*
X150059571Y-90478429D02*
X149987000Y-90514714D01*
X149805571Y-90514714D01*
X149733000Y-90478429D01*
X149696714Y-90405857D01*
X149696714Y-90333286D01*
X149733000Y-90260714D01*
X149805571Y-90224429D01*
X149987000Y-90224429D01*
X150059571Y-90188143D01*
X145088429Y-97445285D02*
X145124714Y-97336428D01*
X145124714Y-97154999D01*
X145088429Y-97082428D01*
X145052143Y-97046142D01*
X144979571Y-97009857D01*
X144907000Y-97009857D01*
X144834429Y-97046142D01*
X144798143Y-97082428D01*
X144761857Y-97154999D01*
X144725571Y-97300142D01*
X144689286Y-97372714D01*
X144653000Y-97408999D01*
X144580429Y-97445285D01*
X144507857Y-97445285D01*
X144435286Y-97408999D01*
X144399000Y-97372714D01*
X144362714Y-97300142D01*
X144362714Y-97118714D01*
X144399000Y-97009857D01*
X145124714Y-96683285D02*
X144362714Y-96683285D01*
X144362714Y-96501857D01*
X144399000Y-96393000D01*
X144471571Y-96320428D01*
X144544143Y-96284143D01*
X144689286Y-96247857D01*
X144798143Y-96247857D01*
X144943286Y-96284143D01*
X145015857Y-96320428D01*
X145088429Y-96393000D01*
X145124714Y-96501857D01*
X145124714Y-96683285D01*
X144907000Y-95957571D02*
X144907000Y-95594714D01*
X145124714Y-96030143D02*
X144362714Y-95776143D01*
X145124714Y-95522143D01*
X146939000Y-97100572D02*
X146902714Y-97173143D01*
X146902714Y-97282000D01*
X146939000Y-97390857D01*
X147011571Y-97463429D01*
X147084143Y-97499714D01*
X147229286Y-97536000D01*
X147338143Y-97536000D01*
X147483286Y-97499714D01*
X147555857Y-97463429D01*
X147628429Y-97390857D01*
X147664714Y-97282000D01*
X147664714Y-97209429D01*
X147628429Y-97100572D01*
X147592143Y-97064286D01*
X147338143Y-97064286D01*
X147338143Y-97209429D01*
X147664714Y-96737714D02*
X146902714Y-96737714D01*
X147664714Y-96302286D01*
X146902714Y-96302286D01*
X147664714Y-95939428D02*
X146902714Y-95939428D01*
X146902714Y-95758000D01*
X146939000Y-95649143D01*
X147011571Y-95576571D01*
X147084143Y-95540286D01*
X147229286Y-95504000D01*
X147338143Y-95504000D01*
X147483286Y-95540286D01*
X147555857Y-95576571D01*
X147628429Y-95649143D01*
X147664714Y-95758000D01*
X147664714Y-95939428D01*
X150168429Y-97427142D02*
X150204714Y-97318285D01*
X150204714Y-97136856D01*
X150168429Y-97064285D01*
X150132143Y-97027999D01*
X150059571Y-96991714D01*
X149987000Y-96991714D01*
X149914429Y-97027999D01*
X149878143Y-97064285D01*
X149841857Y-97136856D01*
X149805571Y-97281999D01*
X149769286Y-97354571D01*
X149733000Y-97390856D01*
X149660429Y-97427142D01*
X149587857Y-97427142D01*
X149515286Y-97390856D01*
X149479000Y-97354571D01*
X149442714Y-97281999D01*
X149442714Y-97100571D01*
X149479000Y-96991714D01*
X150132143Y-96229714D02*
X150168429Y-96266000D01*
X150204714Y-96374857D01*
X150204714Y-96447428D01*
X150168429Y-96556285D01*
X150095857Y-96628857D01*
X150023286Y-96665142D01*
X149878143Y-96701428D01*
X149769286Y-96701428D01*
X149624143Y-96665142D01*
X149551571Y-96628857D01*
X149479000Y-96556285D01*
X149442714Y-96447428D01*
X149442714Y-96374857D01*
X149479000Y-96266000D01*
X149515286Y-96229714D01*
X150204714Y-95540285D02*
X150204714Y-95903142D01*
X149442714Y-95903142D01*
X151982714Y-97826286D02*
X152744714Y-97572286D01*
X151982714Y-97318286D01*
X152744714Y-96628857D02*
X152381857Y-96882857D01*
X152744714Y-97064285D02*
X151982714Y-97064285D01*
X151982714Y-96774000D01*
X152019000Y-96701428D01*
X152055286Y-96665143D01*
X152127857Y-96628857D01*
X152236714Y-96628857D01*
X152309286Y-96665143D01*
X152345571Y-96701428D01*
X152381857Y-96774000D01*
X152381857Y-97064285D01*
X152345571Y-96302285D02*
X152345571Y-96048285D01*
X152744714Y-95939428D02*
X152744714Y-96302285D01*
X151982714Y-96302285D01*
X151982714Y-95939428D01*
X152345571Y-95358856D02*
X152345571Y-95612856D01*
X152744714Y-95612856D02*
X151982714Y-95612856D01*
X151982714Y-95249999D01*
D12*
X137160000Y-104140000D02*
X137160000Y-78740000D01*
X160020000Y-104140000D02*
X137160000Y-104140000D01*
X160020000Y-78740000D02*
X160020000Y-104140000D01*
X137160000Y-78740000D02*
X160020000Y-78740000D01*
D13*
X145200000Y-81050000D02*
X145200000Y-82050000D01*
X146900000Y-82050000D02*
X146900000Y-81050000D01*
X151550000Y-81050000D02*
X151550000Y-82050000D01*
X153250000Y-82050000D02*
X153250000Y-81050000D01*
X153790000Y-100280000D02*
X151130000Y-100280000D01*
X151130000Y-100280000D02*
X151130000Y-103020000D01*
X151130000Y-103020000D02*
X153790000Y-103020000D01*
X153790000Y-103020000D02*
X153790000Y-100280000D01*
X152840000Y-103020000D02*
X151960000Y-103020000D01*
X151960000Y-103020000D02*
X151960000Y-109020000D01*
X151960000Y-109020000D02*
X152840000Y-109020000D01*
X152840000Y-109020000D02*
X152840000Y-103020000D01*
X152840000Y-99970000D02*
X152840000Y-100280000D01*
X151960000Y-99970000D02*
X151960000Y-100280000D01*
X152720000Y-103020000D02*
X152720000Y-109020000D01*
X152600000Y-103020000D02*
X152600000Y-109020000D01*
X152480000Y-103020000D02*
X152480000Y-109020000D01*
X152360000Y-103020000D02*
X152360000Y-109020000D01*
X152240000Y-103020000D02*
X152240000Y-109020000D01*
X152120000Y-103020000D02*
X152120000Y-109020000D01*
X152000000Y-103020000D02*
X152000000Y-109020000D01*
X151130000Y-100280000D02*
X148590000Y-100280000D01*
X148590000Y-100280000D02*
X148590000Y-103020000D01*
X148590000Y-103020000D02*
X151130000Y-103020000D01*
X151130000Y-103020000D02*
X151130000Y-100280000D01*
X150300000Y-103020000D02*
X149420000Y-103020000D01*
X149420000Y-103020000D02*
X149420000Y-109020000D01*
X149420000Y-109020000D02*
X150300000Y-109020000D01*
X150300000Y-109020000D02*
X150300000Y-103020000D01*
X150300000Y-99970000D02*
X150300000Y-100280000D01*
X149420000Y-99970000D02*
X149420000Y-100280000D01*
X148590000Y-100280000D02*
X146050000Y-100280000D01*
X146050000Y-100280000D02*
X146050000Y-103020000D01*
X146050000Y-103020000D02*
X148590000Y-103020000D01*
X148590000Y-103020000D02*
X148590000Y-100280000D01*
X147760000Y-103020000D02*
X146880000Y-103020000D01*
X146880000Y-103020000D02*
X146880000Y-109020000D01*
X146880000Y-109020000D02*
X147760000Y-109020000D01*
X147760000Y-109020000D02*
X147760000Y-103020000D01*
X147760000Y-99970000D02*
X147760000Y-100280000D01*
X146880000Y-99970000D02*
X146880000Y-100280000D01*
X146050000Y-100280000D02*
X143390000Y-100280000D01*
X143390000Y-100280000D02*
X143390000Y-103020000D01*
X143390000Y-103020000D02*
X146050000Y-103020000D01*
X146050000Y-103020000D02*
X146050000Y-100280000D01*
X145220000Y-103020000D02*
X144340000Y-103020000D01*
X144340000Y-103020000D02*
X144340000Y-109020000D01*
X144340000Y-109020000D02*
X145220000Y-109020000D01*
X145220000Y-109020000D02*
X145220000Y-103020000D01*
X145220000Y-99970000D02*
X145220000Y-100280000D01*
X144340000Y-99970000D02*
X144340000Y-100280000D01*
X152400000Y-97730000D02*
X153670000Y-97730000D01*
X153670000Y-97730000D02*
X153670000Y-99000000D01*
X148940000Y-93100000D02*
X150140000Y-93100000D01*
X150140000Y-94860000D02*
X148940000Y-94860000D01*
X144495000Y-93100000D02*
X145695000Y-93100000D01*
X145695000Y-94860000D02*
X144495000Y-94860000D01*
X151520000Y-85690000D02*
X151520000Y-84490000D01*
X153280000Y-84490000D02*
X153280000Y-85690000D01*
X151520000Y-90450000D02*
X151520000Y-89250000D01*
X153280000Y-89250000D02*
X153280000Y-90450000D01*
X146440000Y-86650000D02*
X148200000Y-86650000D01*
X148200000Y-83580000D02*
X145770000Y-83580000D01*
D12*
X135128095Y-106132381D02*
X135128095Y-106941905D01*
X135175714Y-107037143D01*
X135223333Y-107084762D01*
X135318571Y-107132381D01*
X135509048Y-107132381D01*
X135604286Y-107084762D01*
X135651905Y-107037143D01*
X135699524Y-106941905D01*
X135699524Y-106132381D01*
X136699524Y-107132381D02*
X136128095Y-107132381D01*
X136413809Y-107132381D02*
X136413809Y-106132381D01*
X136318571Y-106275238D01*
X136223333Y-106370476D01*
X136128095Y-106418095D01*
X156043334Y-98147143D02*
X155995715Y-98194762D01*
X155852858Y-98242381D01*
X155757620Y-98242381D01*
X155614762Y-98194762D01*
X155519524Y-98099524D01*
X155471905Y-98004286D01*
X155424286Y-97813810D01*
X155424286Y-97670952D01*
X155471905Y-97480476D01*
X155519524Y-97385238D01*
X155614762Y-97290000D01*
X155757620Y-97242381D01*
X155852858Y-97242381D01*
X155995715Y-97290000D01*
X156043334Y-97337619D01*
X156424286Y-97337619D02*
X156471905Y-97290000D01*
X156567143Y-97242381D01*
X156805239Y-97242381D01*
X156900477Y-97290000D01*
X156948096Y-97337619D01*
X156995715Y-97432857D01*
X156995715Y-97528095D01*
X156948096Y-97670952D01*
X156376667Y-98242381D01*
X156995715Y-98242381D01*
X156043334Y-100687143D02*
X155995715Y-100734762D01*
X155852858Y-100782381D01*
X155757620Y-100782381D01*
X155614762Y-100734762D01*
X155519524Y-100639524D01*
X155471905Y-100544286D01*
X155424286Y-100353810D01*
X155424286Y-100210952D01*
X155471905Y-100020476D01*
X155519524Y-99925238D01*
X155614762Y-99830000D01*
X155757620Y-99782381D01*
X155852858Y-99782381D01*
X155995715Y-99830000D01*
X156043334Y-99877619D01*
X156995715Y-100782381D02*
X156424286Y-100782381D01*
X156710000Y-100782381D02*
X156710000Y-99782381D01*
X156614762Y-99925238D01*
X156519524Y-100020476D01*
X156424286Y-100068095D01*
X156043334Y-103227143D02*
X155995715Y-103274762D01*
X155852858Y-103322381D01*
X155757620Y-103322381D01*
X155614762Y-103274762D01*
X155519524Y-103179524D01*
X155471905Y-103084286D01*
X155424286Y-102893810D01*
X155424286Y-102750952D01*
X155471905Y-102560476D01*
X155519524Y-102465238D01*
X155614762Y-102370000D01*
X155757620Y-102322381D01*
X155852858Y-102322381D01*
X155995715Y-102370000D01*
X156043334Y-102417619D01*
X156662381Y-102322381D02*
X156757620Y-102322381D01*
X156852858Y-102370000D01*
X156900477Y-102417619D01*
X156948096Y-102512857D01*
X156995715Y-102703333D01*
X156995715Y-102941429D01*
X156948096Y-103131905D01*
X156900477Y-103227143D01*
X156852858Y-103274762D01*
X156757620Y-103322381D01*
X156662381Y-103322381D01*
X156567143Y-103274762D01*
X156519524Y-103227143D01*
X156471905Y-103131905D01*
X156424286Y-102941429D01*
X156424286Y-102703333D01*
X156471905Y-102512857D01*
X156519524Y-102417619D01*
X156567143Y-102370000D01*
X156662381Y-102322381D01*
X156043334Y-95607143D02*
X155995715Y-95654762D01*
X155852858Y-95702381D01*
X155757620Y-95702381D01*
X155614762Y-95654762D01*
X155519524Y-95559524D01*
X155471905Y-95464286D01*
X155424286Y-95273810D01*
X155424286Y-95130952D01*
X155471905Y-94940476D01*
X155519524Y-94845238D01*
X155614762Y-94750000D01*
X155757620Y-94702381D01*
X155852858Y-94702381D01*
X155995715Y-94750000D01*
X156043334Y-94797619D01*
X156376667Y-94702381D02*
X156995715Y-94702381D01*
X156662381Y-95083333D01*
X156805239Y-95083333D01*
X156900477Y-95130952D01*
X156948096Y-95178571D01*
X156995715Y-95273810D01*
X156995715Y-95511905D01*
X156948096Y-95607143D01*
X156900477Y-95654762D01*
X156805239Y-95702381D01*
X156519524Y-95702381D01*
X156424286Y-95654762D01*
X156376667Y-95607143D01*
X156043334Y-93067143D02*
X155995715Y-93114762D01*
X155852858Y-93162381D01*
X155757620Y-93162381D01*
X155614762Y-93114762D01*
X155519524Y-93019524D01*
X155471905Y-92924286D01*
X155424286Y-92733810D01*
X155424286Y-92590952D01*
X155471905Y-92400476D01*
X155519524Y-92305238D01*
X155614762Y-92210000D01*
X155757620Y-92162381D01*
X155852858Y-92162381D01*
X155995715Y-92210000D01*
X156043334Y-92257619D01*
X156900477Y-92495714D02*
X156900477Y-93162381D01*
X156662381Y-92114762D02*
X156424286Y-92829048D01*
X157043334Y-92829048D01*
X156043334Y-90527143D02*
X155995715Y-90574762D01*
X155852858Y-90622381D01*
X155757620Y-90622381D01*
X155614762Y-90574762D01*
X155519524Y-90479524D01*
X155471905Y-90384286D01*
X155424286Y-90193810D01*
X155424286Y-90050952D01*
X155471905Y-89860476D01*
X155519524Y-89765238D01*
X155614762Y-89670000D01*
X155757620Y-89622381D01*
X155852858Y-89622381D01*
X155995715Y-89670000D01*
X156043334Y-89717619D01*
X156948096Y-89622381D02*
X156471905Y-89622381D01*
X156424286Y-90098571D01*
X156471905Y-90050952D01*
X156567143Y-90003333D01*
X156805239Y-90003333D01*
X156900477Y-90050952D01*
X156948096Y-90098571D01*
X156995715Y-90193810D01*
X156995715Y-90431905D01*
X156948096Y-90527143D01*
X156900477Y-90574762D01*
X156805239Y-90622381D01*
X156567143Y-90622381D01*
X156471905Y-90574762D01*
X156424286Y-90527143D01*
X156043334Y-87987143D02*
X155995715Y-88034762D01*
X155852858Y-88082381D01*
X155757620Y-88082381D01*
X155614762Y-88034762D01*
X155519524Y-87939524D01*
X155471905Y-87844286D01*
X155424286Y-87653810D01*
X155424286Y-87510952D01*
X155471905Y-87320476D01*
X155519524Y-87225238D01*
X155614762Y-87130000D01*
X155757620Y-87082381D01*
X155852858Y-87082381D01*
X155995715Y-87130000D01*
X156043334Y-87177619D01*
X156900477Y-87082381D02*
X156710000Y-87082381D01*
X156614762Y-87130000D01*
X156567143Y-87177619D01*
X156471905Y-87320476D01*
X156424286Y-87510952D01*
X156424286Y-87891905D01*
X156471905Y-87987143D01*
X156519524Y-88034762D01*
X156614762Y-88082381D01*
X156805239Y-88082381D01*
X156900477Y-88034762D01*
X156948096Y-87987143D01*
X156995715Y-87891905D01*
X156995715Y-87653810D01*
X156948096Y-87558571D01*
X156900477Y-87510952D01*
X156805239Y-87463333D01*
X156614762Y-87463333D01*
X156519524Y-87510952D01*
X156471905Y-87558571D01*
X156424286Y-87653810D01*
X156043334Y-85447143D02*
X155995715Y-85494762D01*
X155852858Y-85542381D01*
X155757620Y-85542381D01*
X155614762Y-85494762D01*
X155519524Y-85399524D01*
X155471905Y-85304286D01*
X155424286Y-85113810D01*
X155424286Y-84970952D01*
X155471905Y-84780476D01*
X155519524Y-84685238D01*
X155614762Y-84590000D01*
X155757620Y-84542381D01*
X155852858Y-84542381D01*
X155995715Y-84590000D01*
X156043334Y-84637619D01*
X156376667Y-84542381D02*
X157043334Y-84542381D01*
X156614762Y-85542381D01*
X156043334Y-82907143D02*
X155995715Y-82954762D01*
X155852858Y-83002381D01*
X155757620Y-83002381D01*
X155614762Y-82954762D01*
X155519524Y-82859524D01*
X155471905Y-82764286D01*
X155424286Y-82573810D01*
X155424286Y-82430952D01*
X155471905Y-82240476D01*
X155519524Y-82145238D01*
X155614762Y-82050000D01*
X155757620Y-82002381D01*
X155852858Y-82002381D01*
X155995715Y-82050000D01*
X156043334Y-82097619D01*
X156614762Y-82430952D02*
X156519524Y-82383333D01*
X156471905Y-82335714D01*
X156424286Y-82240476D01*
X156424286Y-82192857D01*
X156471905Y-82097619D01*
X156519524Y-82050000D01*
X156614762Y-82002381D01*
X156805239Y-82002381D01*
X156900477Y-82050000D01*
X156948096Y-82097619D01*
X156995715Y-82192857D01*
X156995715Y-82240476D01*
X156948096Y-82335714D01*
X156900477Y-82383333D01*
X156805239Y-82430952D01*
X156614762Y-82430952D01*
X156519524Y-82478571D01*
X156471905Y-82526190D01*
X156424286Y-82621429D01*
X156424286Y-82811905D01*
X156471905Y-82907143D01*
X156519524Y-82954762D01*
X156614762Y-83002381D01*
X156805239Y-83002381D01*
X156900477Y-82954762D01*
X156948096Y-82907143D01*
X156995715Y-82811905D01*
X156995715Y-82621429D01*
X156948096Y-82526190D01*
X156900477Y-82478571D01*
X156805239Y-82430952D01*
X156043334Y-80367143D02*
X155995715Y-80414762D01*
X155852858Y-80462381D01*
X155757620Y-80462381D01*
X155614762Y-80414762D01*
X155519524Y-80319524D01*
X155471905Y-80224286D01*
X155424286Y-80033810D01*
X155424286Y-79890952D01*
X155471905Y-79700476D01*
X155519524Y-79605238D01*
X155614762Y-79510000D01*
X155757620Y-79462381D01*
X155852858Y-79462381D01*
X155995715Y-79510000D01*
X156043334Y-79557619D01*
X156519524Y-80462381D02*
X156710000Y-80462381D01*
X156805239Y-80414762D01*
X156852858Y-80367143D01*
X156948096Y-80224286D01*
X156995715Y-80033810D01*
X156995715Y-79652857D01*
X156948096Y-79557619D01*
X156900477Y-79510000D01*
X156805239Y-79462381D01*
X156614762Y-79462381D01*
X156519524Y-79510000D01*
X156471905Y-79557619D01*
X156424286Y-79652857D01*
X156424286Y-79890952D01*
X156471905Y-79986190D01*
X156519524Y-80033810D01*
X156614762Y-80081429D01*
X156805239Y-80081429D01*
X156900477Y-80033810D01*
X156948096Y-79986190D01*
X156995715Y-79890952D01*
X140231905Y-103322381D02*
X140231905Y-102322381D01*
X140470000Y-102322381D01*
X140612858Y-102370000D01*
X140708096Y-102465238D01*
X140755715Y-102560476D01*
X140803334Y-102750952D01*
X140803334Y-102893810D01*
X140755715Y-103084286D01*
X140708096Y-103179524D01*
X140612858Y-103274762D01*
X140470000Y-103322381D01*
X140231905Y-103322381D01*
X141136667Y-102322381D02*
X141803334Y-102322381D01*
X141374762Y-103322381D01*
X140231905Y-100782381D02*
X140231905Y-99782381D01*
X140470000Y-99782381D01*
X140612858Y-99830000D01*
X140708096Y-99925238D01*
X140755715Y-100020476D01*
X140803334Y-100210952D01*
X140803334Y-100353810D01*
X140755715Y-100544286D01*
X140708096Y-100639524D01*
X140612858Y-100734762D01*
X140470000Y-100782381D01*
X140231905Y-100782381D01*
X141660477Y-99782381D02*
X141470000Y-99782381D01*
X141374762Y-99830000D01*
X141327143Y-99877619D01*
X141231905Y-100020476D01*
X141184286Y-100210952D01*
X141184286Y-100591905D01*
X141231905Y-100687143D01*
X141279524Y-100734762D01*
X141374762Y-100782381D01*
X141565239Y-100782381D01*
X141660477Y-100734762D01*
X141708096Y-100687143D01*
X141755715Y-100591905D01*
X141755715Y-100353810D01*
X141708096Y-100258571D01*
X141660477Y-100210952D01*
X141565239Y-100163333D01*
X141374762Y-100163333D01*
X141279524Y-100210952D01*
X141231905Y-100258571D01*
X141184286Y-100353810D01*
X140231905Y-98242381D02*
X140231905Y-97242381D01*
X140470000Y-97242381D01*
X140612858Y-97290000D01*
X140708096Y-97385238D01*
X140755715Y-97480476D01*
X140803334Y-97670952D01*
X140803334Y-97813810D01*
X140755715Y-98004286D01*
X140708096Y-98099524D01*
X140612858Y-98194762D01*
X140470000Y-98242381D01*
X140231905Y-98242381D01*
X141708096Y-97242381D02*
X141231905Y-97242381D01*
X141184286Y-97718571D01*
X141231905Y-97670952D01*
X141327143Y-97623333D01*
X141565239Y-97623333D01*
X141660477Y-97670952D01*
X141708096Y-97718571D01*
X141755715Y-97813810D01*
X141755715Y-98051905D01*
X141708096Y-98147143D01*
X141660477Y-98194762D01*
X141565239Y-98242381D01*
X141327143Y-98242381D01*
X141231905Y-98194762D01*
X141184286Y-98147143D01*
X140231905Y-95702381D02*
X140231905Y-94702381D01*
X140470000Y-94702381D01*
X140612858Y-94750000D01*
X140708096Y-94845238D01*
X140755715Y-94940476D01*
X140803334Y-95130952D01*
X140803334Y-95273810D01*
X140755715Y-95464286D01*
X140708096Y-95559524D01*
X140612858Y-95654762D01*
X140470000Y-95702381D01*
X140231905Y-95702381D01*
X141660477Y-95035714D02*
X141660477Y-95702381D01*
X141422381Y-94654762D02*
X141184286Y-95369048D01*
X141803334Y-95369048D01*
X140231905Y-93162381D02*
X140231905Y-92162381D01*
X140470000Y-92162381D01*
X140612858Y-92210000D01*
X140708096Y-92305238D01*
X140755715Y-92400476D01*
X140803334Y-92590952D01*
X140803334Y-92733810D01*
X140755715Y-92924286D01*
X140708096Y-93019524D01*
X140612858Y-93114762D01*
X140470000Y-93162381D01*
X140231905Y-93162381D01*
X141136667Y-92162381D02*
X141755715Y-92162381D01*
X141422381Y-92543333D01*
X141565239Y-92543333D01*
X141660477Y-92590952D01*
X141708096Y-92638571D01*
X141755715Y-92733810D01*
X141755715Y-92971905D01*
X141708096Y-93067143D01*
X141660477Y-93114762D01*
X141565239Y-93162381D01*
X141279524Y-93162381D01*
X141184286Y-93114762D01*
X141136667Y-93067143D01*
X140231905Y-90622381D02*
X140231905Y-89622381D01*
X140470000Y-89622381D01*
X140612858Y-89670000D01*
X140708096Y-89765238D01*
X140755715Y-89860476D01*
X140803334Y-90050952D01*
X140803334Y-90193810D01*
X140755715Y-90384286D01*
X140708096Y-90479524D01*
X140612858Y-90574762D01*
X140470000Y-90622381D01*
X140231905Y-90622381D01*
X141184286Y-89717619D02*
X141231905Y-89670000D01*
X141327143Y-89622381D01*
X141565239Y-89622381D01*
X141660477Y-89670000D01*
X141708096Y-89717619D01*
X141755715Y-89812857D01*
X141755715Y-89908095D01*
X141708096Y-90050952D01*
X141136667Y-90622381D01*
X141755715Y-90622381D01*
X140231905Y-88082381D02*
X140231905Y-87082381D01*
X140470000Y-87082381D01*
X140612858Y-87130000D01*
X140708096Y-87225238D01*
X140755715Y-87320476D01*
X140803334Y-87510952D01*
X140803334Y-87653810D01*
X140755715Y-87844286D01*
X140708096Y-87939524D01*
X140612858Y-88034762D01*
X140470000Y-88082381D01*
X140231905Y-88082381D01*
X141755715Y-88082381D02*
X141184286Y-88082381D01*
X141470000Y-88082381D02*
X141470000Y-87082381D01*
X141374762Y-87225238D01*
X141279524Y-87320476D01*
X141184286Y-87368095D01*
X140231905Y-85542381D02*
X140231905Y-84542381D01*
X140470000Y-84542381D01*
X140612858Y-84590000D01*
X140708096Y-84685238D01*
X140755715Y-84780476D01*
X140803334Y-84970952D01*
X140803334Y-85113810D01*
X140755715Y-85304286D01*
X140708096Y-85399524D01*
X140612858Y-85494762D01*
X140470000Y-85542381D01*
X140231905Y-85542381D01*
X141422381Y-84542381D02*
X141517620Y-84542381D01*
X141612858Y-84590000D01*
X141660477Y-84637619D01*
X141708096Y-84732857D01*
X141755715Y-84923333D01*
X141755715Y-85161429D01*
X141708096Y-85351905D01*
X141660477Y-85447143D01*
X141612858Y-85494762D01*
X141517620Y-85542381D01*
X141422381Y-85542381D01*
X141327143Y-85494762D01*
X141279524Y-85447143D01*
X141231905Y-85351905D01*
X141184286Y-85161429D01*
X141184286Y-84923333D01*
X141231905Y-84732857D01*
X141279524Y-84637619D01*
X141327143Y-84590000D01*
X141422381Y-84542381D01*
X140208096Y-82050000D02*
X140112858Y-82002381D01*
X139970001Y-82002381D01*
X139827143Y-82050000D01*
X139731905Y-82145238D01*
X139684286Y-82240476D01*
X139636667Y-82430952D01*
X139636667Y-82573810D01*
X139684286Y-82764286D01*
X139731905Y-82859524D01*
X139827143Y-82954762D01*
X139970001Y-83002381D01*
X140065239Y-83002381D01*
X140208096Y-82954762D01*
X140255715Y-82907143D01*
X140255715Y-82573810D01*
X140065239Y-82573810D01*
X140684286Y-83002381D02*
X140684286Y-82002381D01*
X141255715Y-83002381D01*
X141255715Y-82002381D01*
X141731905Y-83002381D02*
X141731905Y-82002381D01*
X141970000Y-82002381D01*
X142112858Y-82050000D01*
X142208096Y-82145238D01*
X142255715Y-82240476D01*
X142303334Y-82430952D01*
X142303334Y-82573810D01*
X142255715Y-82764286D01*
X142208096Y-82859524D01*
X142112858Y-82954762D01*
X141970000Y-83002381D01*
X141731905Y-83002381D01*
X140779524Y-79462381D02*
X140303333Y-79462381D01*
X140255714Y-79938571D01*
X140303333Y-79890952D01*
X140398571Y-79843333D01*
X140636667Y-79843333D01*
X140731905Y-79890952D01*
X140779524Y-79938571D01*
X140827143Y-80033810D01*
X140827143Y-80271905D01*
X140779524Y-80367143D01*
X140731905Y-80414762D01*
X140636667Y-80462381D01*
X140398571Y-80462381D01*
X140303333Y-80414762D01*
X140255714Y-80367143D01*
X141112857Y-79462381D02*
X141446190Y-80462381D01*
X141779524Y-79462381D01*
X144907143Y-81716666D02*
X144954762Y-81764285D01*
X145002381Y-81907142D01*
X145002381Y-82002380D01*
X144954762Y-82145238D01*
X144859524Y-82240476D01*
X144764286Y-82288095D01*
X144573810Y-82335714D01*
X144430952Y-82335714D01*
X144240476Y-82288095D01*
X144145238Y-82240476D01*
X144050000Y-82145238D01*
X144002381Y-82002380D01*
X144002381Y-81907142D01*
X144050000Y-81764285D01*
X144097619Y-81716666D01*
X145002381Y-80764285D02*
X145002381Y-81335714D01*
X145002381Y-81050000D02*
X144002381Y-81050000D01*
X144145238Y-81145238D01*
X144240476Y-81240476D01*
X144288095Y-81335714D01*
X151257143Y-81716666D02*
X151304762Y-81764285D01*
X151352381Y-81907142D01*
X151352381Y-82002380D01*
X151304762Y-82145238D01*
X151209524Y-82240476D01*
X151114286Y-82288095D01*
X150923810Y-82335714D01*
X150780952Y-82335714D01*
X150590476Y-82288095D01*
X150495238Y-82240476D01*
X150400000Y-82145238D01*
X150352381Y-82002380D01*
X150352381Y-81907142D01*
X150400000Y-81764285D01*
X150447619Y-81716666D01*
X150447619Y-81335714D02*
X150400000Y-81288095D01*
X150352381Y-81192857D01*
X150352381Y-80954761D01*
X150400000Y-80859523D01*
X150447619Y-80811904D01*
X150542857Y-80764285D01*
X150638095Y-80764285D01*
X150780952Y-80811904D01*
X151352381Y-81383333D01*
X151352381Y-80764285D01*
X154122381Y-103203333D02*
X154836667Y-103203333D01*
X154979524Y-103250953D01*
X155074762Y-103346191D01*
X155122381Y-103489048D01*
X155122381Y-103584286D01*
X155122381Y-102203333D02*
X155122381Y-102774762D01*
X155122381Y-102489048D02*
X154122381Y-102489048D01*
X154265238Y-102584286D01*
X154360476Y-102679524D01*
X154408095Y-102774762D01*
X149058334Y-92527381D02*
X148725000Y-92051190D01*
X148486905Y-92527381D02*
X148486905Y-91527381D01*
X148867858Y-91527381D01*
X148963096Y-91575000D01*
X149010715Y-91622619D01*
X149058334Y-91717857D01*
X149058334Y-91860714D01*
X149010715Y-91955952D01*
X148963096Y-92003571D01*
X148867858Y-92051190D01*
X148486905Y-92051190D01*
X150010715Y-92527381D02*
X149439286Y-92527381D01*
X149725000Y-92527381D02*
X149725000Y-91527381D01*
X149629762Y-91670238D01*
X149534524Y-91765476D01*
X149439286Y-91813095D01*
X144613334Y-92527381D02*
X144280000Y-92051190D01*
X144041905Y-92527381D02*
X144041905Y-91527381D01*
X144422858Y-91527381D01*
X144518096Y-91575000D01*
X144565715Y-91622619D01*
X144613334Y-91717857D01*
X144613334Y-91860714D01*
X144565715Y-91955952D01*
X144518096Y-92003571D01*
X144422858Y-92051190D01*
X144041905Y-92051190D01*
X144994286Y-91622619D02*
X145041905Y-91575000D01*
X145137143Y-91527381D01*
X145375239Y-91527381D01*
X145470477Y-91575000D01*
X145518096Y-91622619D01*
X145565715Y-91717857D01*
X145565715Y-91813095D01*
X145518096Y-91955952D01*
X144946667Y-92527381D01*
X145565715Y-92527381D01*
X154502381Y-85256666D02*
X154026190Y-85590000D01*
X154502381Y-85828095D02*
X153502381Y-85828095D01*
X153502381Y-85447142D01*
X153550000Y-85351904D01*
X153597619Y-85304285D01*
X153692857Y-85256666D01*
X153835714Y-85256666D01*
X153930952Y-85304285D01*
X153978571Y-85351904D01*
X154026190Y-85447142D01*
X154026190Y-85828095D01*
X153502381Y-84923333D02*
X153502381Y-84304285D01*
X153883333Y-84637619D01*
X153883333Y-84494761D01*
X153930952Y-84399523D01*
X153978571Y-84351904D01*
X154073810Y-84304285D01*
X154311905Y-84304285D01*
X154407143Y-84351904D01*
X154454762Y-84399523D01*
X154502381Y-84494761D01*
X154502381Y-84780476D01*
X154454762Y-84875714D01*
X154407143Y-84923333D01*
X154502381Y-90016666D02*
X154026190Y-90350000D01*
X154502381Y-90588095D02*
X153502381Y-90588095D01*
X153502381Y-90207142D01*
X153550000Y-90111904D01*
X153597619Y-90064285D01*
X153692857Y-90016666D01*
X153835714Y-90016666D01*
X153930952Y-90064285D01*
X153978571Y-90111904D01*
X154026190Y-90207142D01*
X154026190Y-90588095D01*
X153835714Y-89159523D02*
X154502381Y-89159523D01*
X153454762Y-89397619D02*
X154169048Y-89635714D01*
X154169048Y-89016666D01*
X147828095Y-82092381D02*
X147828095Y-82901905D01*
X147875714Y-82997143D01*
X147923333Y-83044762D01*
X148018571Y-83092381D01*
X148209048Y-83092381D01*
X148304286Y-83044762D01*
X148351905Y-82997143D01*
X148399524Y-82901905D01*
X148399524Y-82092381D01*
X148828095Y-82187619D02*
X148875714Y-82140000D01*
X148970952Y-82092381D01*
X149209048Y-82092381D01*
X149304286Y-82140000D01*
X149351905Y-82187619D01*
X149399524Y-82282857D01*
X149399524Y-82378095D01*
X149351905Y-82520952D01*
X148780476Y-83092381D01*
X149399524Y-83092381D01*
M02*
