G04 #@! TF.FileFunction,Copper,L1,Top,Signal*
%FSLAX46Y46*%
G04 Gerber Fmt 4.6, Leading zero omitted, Abs format (unit mm)*
G04 Created by KiCad (PCBNEW 4.0.6) date Thu Jan  4 19:06:44 2018*
%MOMM*%
%LPD*%
G01*
G04 APERTURE LIST*
%ADD10C,0.100000*%
%ADD11C,1.524000*%
%ADD12R,1.250000X1.000000*%
%ADD13R,1.700000X1.700000*%
%ADD14O,1.700000X1.700000*%
%ADD15R,0.700000X1.300000*%
%ADD16R,1.300000X0.700000*%
%ADD17R,2.000000X0.650000*%
%ADD18C,0.600000*%
%ADD19C,0.250000*%
G04 APERTURE END LIST*
D10*
D11*
X138430000Y-80010000D03*
X138430000Y-82550000D03*
X138430000Y-85090000D03*
X138430000Y-87630000D03*
X138430000Y-90170000D03*
X138430000Y-92710000D03*
X138430000Y-95250000D03*
X138430000Y-97790000D03*
X138430000Y-100330000D03*
X138430000Y-102870000D03*
X158750000Y-80010000D03*
X158750000Y-82550000D03*
X158750000Y-85090000D03*
X158750000Y-87630000D03*
X158750000Y-90170000D03*
X158750000Y-92710000D03*
X158750000Y-95250000D03*
X158750000Y-97790000D03*
X158750000Y-100330000D03*
X158750000Y-102870000D03*
D12*
X146050000Y-82550000D03*
X146050000Y-80550000D03*
X152400000Y-82550000D03*
X152400000Y-80550000D03*
D13*
X152400000Y-99000000D03*
D14*
X149860000Y-99000000D03*
X147320000Y-99000000D03*
X144780000Y-99000000D03*
D15*
X150490000Y-93980000D03*
X148590000Y-93980000D03*
X146045000Y-93980000D03*
X144145000Y-93980000D03*
D16*
X152400000Y-84140000D03*
X152400000Y-86040000D03*
X152400000Y-88900000D03*
X152400000Y-90800000D03*
D17*
X145610000Y-84140000D03*
X145610000Y-85090000D03*
X145610000Y-86040000D03*
X149030000Y-86040000D03*
X149030000Y-84140000D03*
D18*
X143510000Y-85090000D03*
X149860000Y-80550000D03*
X148590000Y-80550000D03*
X152400000Y-92710000D03*
X150495000Y-95885000D03*
X147320000Y-95885000D03*
D19*
X145610000Y-86040000D02*
X143534998Y-86040000D01*
X143534998Y-86040000D02*
X142560000Y-85065002D01*
X142560000Y-85065002D02*
X142560000Y-84140000D01*
X138430000Y-80010000D02*
X142560000Y-84140000D01*
X142560000Y-84140000D02*
X145610000Y-84140000D01*
X145610000Y-84140000D02*
X145610000Y-82990000D01*
X145610000Y-82990000D02*
X146050000Y-82550000D01*
X145925000Y-82550000D02*
X146050000Y-82550000D01*
X145610000Y-85090000D02*
X143510000Y-85090000D01*
X149860000Y-80550000D02*
X148590000Y-80550000D01*
X151525000Y-80550000D02*
X149860000Y-80550000D01*
X148590000Y-80550000D02*
X146050000Y-80550000D01*
X152400000Y-80550000D02*
X151525000Y-80550000D01*
X152400000Y-90800000D02*
X152400000Y-92710000D01*
X152400000Y-97900000D02*
X154415000Y-95885000D01*
X154415000Y-95885000D02*
X154940000Y-95360000D01*
X150495000Y-95885000D02*
X154415000Y-95885000D01*
X146045000Y-93980000D02*
X146045000Y-94610000D01*
X146045000Y-94610000D02*
X147320000Y-95885000D01*
X154940000Y-95360000D02*
X154940000Y-93980000D01*
X154940000Y-93980000D02*
X154940000Y-86380000D01*
X150490000Y-93980000D02*
X154940000Y-93980000D01*
X146045000Y-93455998D02*
X146045000Y-93980000D01*
X146050000Y-93450998D02*
X146045000Y-93455998D01*
X154940000Y-86380000D02*
X152700000Y-84140000D01*
X152700000Y-84140000D02*
X152400000Y-84140000D01*
X152400000Y-99000000D02*
X152400000Y-97900000D01*
X152400000Y-82550000D02*
X152400000Y-84140000D01*
X149030000Y-84140000D02*
X152400000Y-84140000D01*
X149030000Y-84140000D02*
X148355000Y-84140000D01*
X148590000Y-93980000D02*
X148590000Y-97730000D01*
X148590000Y-97730000D02*
X149860000Y-99000000D01*
X138430000Y-85090000D02*
X140000000Y-85090000D01*
X140000000Y-85090000D02*
X148590000Y-93680000D01*
X148590000Y-93680000D02*
X148590000Y-93980000D01*
X144145000Y-93980000D02*
X144145000Y-98365000D01*
X144145000Y-98365000D02*
X144780000Y-99000000D01*
X138430000Y-90170000D02*
X140635000Y-90170000D01*
X140635000Y-90170000D02*
X144145000Y-93680000D01*
X144145000Y-93680000D02*
X144145000Y-93980000D01*
X138341100Y-87223600D02*
X138341100Y-89763600D01*
X152400000Y-86040000D02*
X152400000Y-88900000D01*
X149030000Y-86040000D02*
X152400000Y-86040000D01*
M02*
