M48
;DRILL file {KiCad 4.0.6} date Thu Jan  4 19:01:06 2018
;FORMAT={-:-/ absolute / inch / decimal}
FMAT,2
INCH,TZ
T1C0.016
T2C0.030
T3C0.039
%
G90
G05
M72
T1
X5.65Y-3.35
X5.8Y-3.775
X5.85Y-3.1713
X5.9Y-3.1713
X5.925Y-3.775
X6.Y-3.65
T2
X5.45Y-3.15
X5.45Y-3.25
X5.45Y-3.35
X5.45Y-3.45
X5.45Y-3.55
X5.45Y-3.65
X5.45Y-3.75
X5.45Y-3.85
X5.45Y-3.95
X5.45Y-4.05
X6.25Y-3.15
X6.25Y-3.25
X6.25Y-3.35
X6.25Y-3.45
X6.25Y-3.55
X6.25Y-3.65
X6.25Y-3.75
X6.25Y-3.85
X6.25Y-3.95
X6.25Y-4.05
T3
X5.7Y-3.8976
X5.8Y-3.8976
X5.9Y-3.8976
X6.Y-3.8976
T0
M30
