G04 #@! TF.FileFunction,Copper,L2,Bot,Signal*
%FSLAX46Y46*%
G04 Gerber Fmt 4.6, Leading zero omitted, Abs format (unit mm)*
G04 Created by KiCad (PCBNEW 4.0.6) date Thu Jan  4 19:06:44 2018*
%MOMM*%
%LPD*%
G01*
G04 APERTURE LIST*
%ADD10C,0.100000*%
%ADD11C,1.524000*%
%ADD12R,1.700000X1.700000*%
%ADD13O,1.700000X1.700000*%
%ADD14C,0.600000*%
%ADD15C,0.250000*%
%ADD16C,0.254000*%
G04 APERTURE END LIST*
D10*
D11*
X138430000Y-80010000D03*
X138430000Y-82550000D03*
X138430000Y-85090000D03*
X138430000Y-87630000D03*
X138430000Y-90170000D03*
X138430000Y-92710000D03*
X138430000Y-95250000D03*
X138430000Y-97790000D03*
X138430000Y-100330000D03*
X138430000Y-102870000D03*
X158750000Y-80010000D03*
X158750000Y-82550000D03*
X158750000Y-85090000D03*
X158750000Y-87630000D03*
X158750000Y-90170000D03*
X158750000Y-92710000D03*
X158750000Y-95250000D03*
X158750000Y-97790000D03*
X158750000Y-100330000D03*
X158750000Y-102870000D03*
D12*
X152400000Y-99000000D03*
D13*
X149860000Y-99000000D03*
X147320000Y-99000000D03*
X144780000Y-99000000D03*
D14*
X143510000Y-85090000D03*
X149860000Y-80550000D03*
X148590000Y-80550000D03*
X152400000Y-92710000D03*
X150495000Y-95885000D03*
X147320000Y-95885000D03*
D15*
X147320000Y-95885000D02*
X150495000Y-95885000D01*
D16*
G36*
X157566371Y-79217630D02*
X157353243Y-79730900D01*
X157352758Y-80286661D01*
X157564990Y-80800303D01*
X157957630Y-81193629D01*
X158165512Y-81279949D01*
X157959697Y-81364990D01*
X157566371Y-81757630D01*
X157353243Y-82270900D01*
X157352758Y-82826661D01*
X157564990Y-83340303D01*
X157957630Y-83733629D01*
X158165512Y-83819949D01*
X157959697Y-83904990D01*
X157566371Y-84297630D01*
X157353243Y-84810900D01*
X157352758Y-85366661D01*
X157564990Y-85880303D01*
X157957630Y-86273629D01*
X158165512Y-86359949D01*
X157959697Y-86444990D01*
X157566371Y-86837630D01*
X157353243Y-87350900D01*
X157352758Y-87906661D01*
X157564990Y-88420303D01*
X157957630Y-88813629D01*
X158165512Y-88899949D01*
X157959697Y-88984990D01*
X157566371Y-89377630D01*
X157353243Y-89890900D01*
X157352758Y-90446661D01*
X157564990Y-90960303D01*
X157957630Y-91353629D01*
X158165512Y-91439949D01*
X157959697Y-91524990D01*
X157566371Y-91917630D01*
X157353243Y-92430900D01*
X157352758Y-92986661D01*
X157564990Y-93500303D01*
X157957630Y-93893629D01*
X158165512Y-93979949D01*
X157959697Y-94064990D01*
X157566371Y-94457630D01*
X157353243Y-94970900D01*
X157352758Y-95526661D01*
X157564990Y-96040303D01*
X157957630Y-96433629D01*
X158165512Y-96519949D01*
X157959697Y-96604990D01*
X157566371Y-96997630D01*
X157353243Y-97510900D01*
X157352758Y-98066661D01*
X157564990Y-98580303D01*
X157957630Y-98973629D01*
X158165512Y-99059949D01*
X157959697Y-99144990D01*
X157566371Y-99537630D01*
X157353243Y-100050900D01*
X157352758Y-100606661D01*
X157564990Y-101120303D01*
X157957630Y-101513629D01*
X158165512Y-101599949D01*
X157959697Y-101684990D01*
X157566371Y-102077630D01*
X157353243Y-102590900D01*
X157353110Y-102743000D01*
X139827111Y-102743000D01*
X139827242Y-102593339D01*
X139615010Y-102079697D01*
X139222370Y-101686371D01*
X139014488Y-101600051D01*
X139220303Y-101515010D01*
X139613629Y-101122370D01*
X139826757Y-100609100D01*
X139827242Y-100053339D01*
X139615010Y-99539697D01*
X139222370Y-99146371D01*
X139014488Y-99060051D01*
X139220303Y-98975010D01*
X139224413Y-98970907D01*
X143295000Y-98970907D01*
X143295000Y-99029093D01*
X143408039Y-99597378D01*
X143729946Y-100079147D01*
X144211715Y-100401054D01*
X144780000Y-100514093D01*
X145348285Y-100401054D01*
X145830054Y-100079147D01*
X146057702Y-99738447D01*
X146124817Y-99881358D01*
X146553076Y-100271645D01*
X146963110Y-100441476D01*
X147193000Y-100320155D01*
X147193000Y-99127000D01*
X147173000Y-99127000D01*
X147173000Y-98873000D01*
X147193000Y-98873000D01*
X147193000Y-97679845D01*
X147447000Y-97679845D01*
X147447000Y-98873000D01*
X147467000Y-98873000D01*
X147467000Y-99127000D01*
X147447000Y-99127000D01*
X147447000Y-100320155D01*
X147676890Y-100441476D01*
X148086924Y-100271645D01*
X148515183Y-99881358D01*
X148582298Y-99738447D01*
X148809946Y-100079147D01*
X149291715Y-100401054D01*
X149860000Y-100514093D01*
X150428285Y-100401054D01*
X150910054Y-100079147D01*
X150937850Y-100037548D01*
X150946838Y-100085317D01*
X151085910Y-100301441D01*
X151298110Y-100446431D01*
X151550000Y-100497440D01*
X153250000Y-100497440D01*
X153485317Y-100453162D01*
X153701441Y-100314090D01*
X153846431Y-100101890D01*
X153897440Y-99850000D01*
X153897440Y-98150000D01*
X153853162Y-97914683D01*
X153714090Y-97698559D01*
X153501890Y-97553569D01*
X153250000Y-97502560D01*
X151550000Y-97502560D01*
X151314683Y-97546838D01*
X151098559Y-97685910D01*
X150953569Y-97898110D01*
X150939914Y-97965541D01*
X150910054Y-97920853D01*
X150428285Y-97598946D01*
X149860000Y-97485907D01*
X149291715Y-97598946D01*
X148809946Y-97920853D01*
X148582298Y-98261553D01*
X148515183Y-98118642D01*
X148086924Y-97728355D01*
X147676890Y-97558524D01*
X147447000Y-97679845D01*
X147193000Y-97679845D01*
X146963110Y-97558524D01*
X146553076Y-97728355D01*
X146124817Y-98118642D01*
X146057702Y-98261553D01*
X145830054Y-97920853D01*
X145348285Y-97598946D01*
X144780000Y-97485907D01*
X144211715Y-97598946D01*
X143729946Y-97920853D01*
X143408039Y-98402622D01*
X143295000Y-98970907D01*
X139224413Y-98970907D01*
X139613629Y-98582370D01*
X139826757Y-98069100D01*
X139827242Y-97513339D01*
X139615010Y-96999697D01*
X139222370Y-96606371D01*
X139014488Y-96520051D01*
X139220303Y-96435010D01*
X139585783Y-96070167D01*
X146384838Y-96070167D01*
X146526883Y-96413943D01*
X146789673Y-96677192D01*
X147133201Y-96819838D01*
X147505167Y-96820162D01*
X147848943Y-96678117D01*
X147882118Y-96645000D01*
X149932537Y-96645000D01*
X149964673Y-96677192D01*
X150308201Y-96819838D01*
X150680167Y-96820162D01*
X151023943Y-96678117D01*
X151287192Y-96415327D01*
X151429838Y-96071799D01*
X151430162Y-95699833D01*
X151288117Y-95356057D01*
X151025327Y-95092808D01*
X150681799Y-94950162D01*
X150309833Y-94949838D01*
X149966057Y-95091883D01*
X149932882Y-95125000D01*
X147882463Y-95125000D01*
X147850327Y-95092808D01*
X147506799Y-94950162D01*
X147134833Y-94949838D01*
X146791057Y-95091883D01*
X146527808Y-95354673D01*
X146385162Y-95698201D01*
X146384838Y-96070167D01*
X139585783Y-96070167D01*
X139613629Y-96042370D01*
X139826757Y-95529100D01*
X139827242Y-94973339D01*
X139615010Y-94459697D01*
X139222370Y-94066371D01*
X139014488Y-93980051D01*
X139220303Y-93895010D01*
X139613629Y-93502370D01*
X139826757Y-92989100D01*
X139827242Y-92433339D01*
X139615010Y-91919697D01*
X139222370Y-91526371D01*
X139014488Y-91440051D01*
X139220303Y-91355010D01*
X139613629Y-90962370D01*
X139826757Y-90449100D01*
X139827242Y-89893339D01*
X139615010Y-89379697D01*
X139222370Y-88986371D01*
X139014488Y-88900051D01*
X139220303Y-88815010D01*
X139613629Y-88422370D01*
X139826757Y-87909100D01*
X139827242Y-87353339D01*
X139615010Y-86839697D01*
X139222370Y-86446371D01*
X139014488Y-86360051D01*
X139220303Y-86275010D01*
X139613629Y-85882370D01*
X139826757Y-85369100D01*
X139827242Y-84813339D01*
X139615010Y-84299697D01*
X139222370Y-83906371D01*
X139030273Y-83826605D01*
X139161143Y-83772397D01*
X139230608Y-83530213D01*
X138430000Y-82729605D01*
X137629392Y-83530213D01*
X137698857Y-83772397D01*
X137839318Y-83822509D01*
X137639697Y-83904990D01*
X137287000Y-84257072D01*
X137287000Y-83303916D01*
X137449787Y-83350608D01*
X138250395Y-82550000D01*
X138609605Y-82550000D01*
X139410213Y-83350608D01*
X139652397Y-83281143D01*
X139839144Y-82757698D01*
X139811362Y-82202632D01*
X139652397Y-81818857D01*
X139410213Y-81749392D01*
X138609605Y-82550000D01*
X138250395Y-82550000D01*
X137449787Y-81749392D01*
X137287000Y-81796084D01*
X137287000Y-80842386D01*
X137637630Y-81193629D01*
X137829727Y-81273395D01*
X137698857Y-81327603D01*
X137629392Y-81569787D01*
X138430000Y-82370395D01*
X139230608Y-81569787D01*
X139161143Y-81327603D01*
X139020682Y-81277491D01*
X139220303Y-81195010D01*
X139613629Y-80802370D01*
X139826757Y-80289100D01*
X139827242Y-79733339D01*
X139615010Y-79219697D01*
X139262928Y-78867000D01*
X157917614Y-78867000D01*
X157566371Y-79217630D01*
X157566371Y-79217630D01*
G37*
X157566371Y-79217630D02*
X157353243Y-79730900D01*
X157352758Y-80286661D01*
X157564990Y-80800303D01*
X157957630Y-81193629D01*
X158165512Y-81279949D01*
X157959697Y-81364990D01*
X157566371Y-81757630D01*
X157353243Y-82270900D01*
X157352758Y-82826661D01*
X157564990Y-83340303D01*
X157957630Y-83733629D01*
X158165512Y-83819949D01*
X157959697Y-83904990D01*
X157566371Y-84297630D01*
X157353243Y-84810900D01*
X157352758Y-85366661D01*
X157564990Y-85880303D01*
X157957630Y-86273629D01*
X158165512Y-86359949D01*
X157959697Y-86444990D01*
X157566371Y-86837630D01*
X157353243Y-87350900D01*
X157352758Y-87906661D01*
X157564990Y-88420303D01*
X157957630Y-88813629D01*
X158165512Y-88899949D01*
X157959697Y-88984990D01*
X157566371Y-89377630D01*
X157353243Y-89890900D01*
X157352758Y-90446661D01*
X157564990Y-90960303D01*
X157957630Y-91353629D01*
X158165512Y-91439949D01*
X157959697Y-91524990D01*
X157566371Y-91917630D01*
X157353243Y-92430900D01*
X157352758Y-92986661D01*
X157564990Y-93500303D01*
X157957630Y-93893629D01*
X158165512Y-93979949D01*
X157959697Y-94064990D01*
X157566371Y-94457630D01*
X157353243Y-94970900D01*
X157352758Y-95526661D01*
X157564990Y-96040303D01*
X157957630Y-96433629D01*
X158165512Y-96519949D01*
X157959697Y-96604990D01*
X157566371Y-96997630D01*
X157353243Y-97510900D01*
X157352758Y-98066661D01*
X157564990Y-98580303D01*
X157957630Y-98973629D01*
X158165512Y-99059949D01*
X157959697Y-99144990D01*
X157566371Y-99537630D01*
X157353243Y-100050900D01*
X157352758Y-100606661D01*
X157564990Y-101120303D01*
X157957630Y-101513629D01*
X158165512Y-101599949D01*
X157959697Y-101684990D01*
X157566371Y-102077630D01*
X157353243Y-102590900D01*
X157353110Y-102743000D01*
X139827111Y-102743000D01*
X139827242Y-102593339D01*
X139615010Y-102079697D01*
X139222370Y-101686371D01*
X139014488Y-101600051D01*
X139220303Y-101515010D01*
X139613629Y-101122370D01*
X139826757Y-100609100D01*
X139827242Y-100053339D01*
X139615010Y-99539697D01*
X139222370Y-99146371D01*
X139014488Y-99060051D01*
X139220303Y-98975010D01*
X139224413Y-98970907D01*
X143295000Y-98970907D01*
X143295000Y-99029093D01*
X143408039Y-99597378D01*
X143729946Y-100079147D01*
X144211715Y-100401054D01*
X144780000Y-100514093D01*
X145348285Y-100401054D01*
X145830054Y-100079147D01*
X146057702Y-99738447D01*
X146124817Y-99881358D01*
X146553076Y-100271645D01*
X146963110Y-100441476D01*
X147193000Y-100320155D01*
X147193000Y-99127000D01*
X147173000Y-99127000D01*
X147173000Y-98873000D01*
X147193000Y-98873000D01*
X147193000Y-97679845D01*
X147447000Y-97679845D01*
X147447000Y-98873000D01*
X147467000Y-98873000D01*
X147467000Y-99127000D01*
X147447000Y-99127000D01*
X147447000Y-100320155D01*
X147676890Y-100441476D01*
X148086924Y-100271645D01*
X148515183Y-99881358D01*
X148582298Y-99738447D01*
X148809946Y-100079147D01*
X149291715Y-100401054D01*
X149860000Y-100514093D01*
X150428285Y-100401054D01*
X150910054Y-100079147D01*
X150937850Y-100037548D01*
X150946838Y-100085317D01*
X151085910Y-100301441D01*
X151298110Y-100446431D01*
X151550000Y-100497440D01*
X153250000Y-100497440D01*
X153485317Y-100453162D01*
X153701441Y-100314090D01*
X153846431Y-100101890D01*
X153897440Y-99850000D01*
X153897440Y-98150000D01*
X153853162Y-97914683D01*
X153714090Y-97698559D01*
X153501890Y-97553569D01*
X153250000Y-97502560D01*
X151550000Y-97502560D01*
X151314683Y-97546838D01*
X151098559Y-97685910D01*
X150953569Y-97898110D01*
X150939914Y-97965541D01*
X150910054Y-97920853D01*
X150428285Y-97598946D01*
X149860000Y-97485907D01*
X149291715Y-97598946D01*
X148809946Y-97920853D01*
X148582298Y-98261553D01*
X148515183Y-98118642D01*
X148086924Y-97728355D01*
X147676890Y-97558524D01*
X147447000Y-97679845D01*
X147193000Y-97679845D01*
X146963110Y-97558524D01*
X146553076Y-97728355D01*
X146124817Y-98118642D01*
X146057702Y-98261553D01*
X145830054Y-97920853D01*
X145348285Y-97598946D01*
X144780000Y-97485907D01*
X144211715Y-97598946D01*
X143729946Y-97920853D01*
X143408039Y-98402622D01*
X143295000Y-98970907D01*
X139224413Y-98970907D01*
X139613629Y-98582370D01*
X139826757Y-98069100D01*
X139827242Y-97513339D01*
X139615010Y-96999697D01*
X139222370Y-96606371D01*
X139014488Y-96520051D01*
X139220303Y-96435010D01*
X139585783Y-96070167D01*
X146384838Y-96070167D01*
X146526883Y-96413943D01*
X146789673Y-96677192D01*
X147133201Y-96819838D01*
X147505167Y-96820162D01*
X147848943Y-96678117D01*
X147882118Y-96645000D01*
X149932537Y-96645000D01*
X149964673Y-96677192D01*
X150308201Y-96819838D01*
X150680167Y-96820162D01*
X151023943Y-96678117D01*
X151287192Y-96415327D01*
X151429838Y-96071799D01*
X151430162Y-95699833D01*
X151288117Y-95356057D01*
X151025327Y-95092808D01*
X150681799Y-94950162D01*
X150309833Y-94949838D01*
X149966057Y-95091883D01*
X149932882Y-95125000D01*
X147882463Y-95125000D01*
X147850327Y-95092808D01*
X147506799Y-94950162D01*
X147134833Y-94949838D01*
X146791057Y-95091883D01*
X146527808Y-95354673D01*
X146385162Y-95698201D01*
X146384838Y-96070167D01*
X139585783Y-96070167D01*
X139613629Y-96042370D01*
X139826757Y-95529100D01*
X139827242Y-94973339D01*
X139615010Y-94459697D01*
X139222370Y-94066371D01*
X139014488Y-93980051D01*
X139220303Y-93895010D01*
X139613629Y-93502370D01*
X139826757Y-92989100D01*
X139827242Y-92433339D01*
X139615010Y-91919697D01*
X139222370Y-91526371D01*
X139014488Y-91440051D01*
X139220303Y-91355010D01*
X139613629Y-90962370D01*
X139826757Y-90449100D01*
X139827242Y-89893339D01*
X139615010Y-89379697D01*
X139222370Y-88986371D01*
X139014488Y-88900051D01*
X139220303Y-88815010D01*
X139613629Y-88422370D01*
X139826757Y-87909100D01*
X139827242Y-87353339D01*
X139615010Y-86839697D01*
X139222370Y-86446371D01*
X139014488Y-86360051D01*
X139220303Y-86275010D01*
X139613629Y-85882370D01*
X139826757Y-85369100D01*
X139827242Y-84813339D01*
X139615010Y-84299697D01*
X139222370Y-83906371D01*
X139030273Y-83826605D01*
X139161143Y-83772397D01*
X139230608Y-83530213D01*
X138430000Y-82729605D01*
X137629392Y-83530213D01*
X137698857Y-83772397D01*
X137839318Y-83822509D01*
X137639697Y-83904990D01*
X137287000Y-84257072D01*
X137287000Y-83303916D01*
X137449787Y-83350608D01*
X138250395Y-82550000D01*
X138609605Y-82550000D01*
X139410213Y-83350608D01*
X139652397Y-83281143D01*
X139839144Y-82757698D01*
X139811362Y-82202632D01*
X139652397Y-81818857D01*
X139410213Y-81749392D01*
X138609605Y-82550000D01*
X138250395Y-82550000D01*
X137449787Y-81749392D01*
X137287000Y-81796084D01*
X137287000Y-80842386D01*
X137637630Y-81193629D01*
X137829727Y-81273395D01*
X137698857Y-81327603D01*
X137629392Y-81569787D01*
X138430000Y-82370395D01*
X139230608Y-81569787D01*
X139161143Y-81327603D01*
X139020682Y-81277491D01*
X139220303Y-81195010D01*
X139613629Y-80802370D01*
X139826757Y-80289100D01*
X139827242Y-79733339D01*
X139615010Y-79219697D01*
X139262928Y-78867000D01*
X157917614Y-78867000D01*
X157566371Y-79217630D01*
M02*
