G04 #@! TF.FileFunction,Soldermask,Top*
%FSLAX46Y46*%
G04 Gerber Fmt 4.6, Leading zero omitted, Abs format (unit mm)*
G04 Created by KiCad (PCBNEW 4.0.6) date Thu Jan  4 19:06:44 2018*
%MOMM*%
%LPD*%
G01*
G04 APERTURE LIST*
%ADD10C,0.100000*%
%ADD11C,1.924000*%
%ADD12R,1.650000X1.400000*%
%ADD13R,2.100000X2.100000*%
%ADD14O,2.100000X2.100000*%
%ADD15R,1.100000X1.700000*%
%ADD16R,1.700000X1.100000*%
%ADD17R,2.400000X1.050000*%
G04 APERTURE END LIST*
D10*
D11*
X138430000Y-80010000D03*
X138430000Y-82550000D03*
X138430000Y-85090000D03*
X138430000Y-87630000D03*
X138430000Y-90170000D03*
X138430000Y-92710000D03*
X138430000Y-95250000D03*
X138430000Y-97790000D03*
X138430000Y-100330000D03*
X138430000Y-102870000D03*
X158750000Y-80010000D03*
X158750000Y-82550000D03*
X158750000Y-85090000D03*
X158750000Y-87630000D03*
X158750000Y-90170000D03*
X158750000Y-92710000D03*
X158750000Y-95250000D03*
X158750000Y-97790000D03*
X158750000Y-100330000D03*
X158750000Y-102870000D03*
D12*
X146050000Y-82550000D03*
X146050000Y-80550000D03*
X152400000Y-82550000D03*
X152400000Y-80550000D03*
D13*
X152400000Y-99000000D03*
D14*
X149860000Y-99000000D03*
X147320000Y-99000000D03*
X144780000Y-99000000D03*
D15*
X150490000Y-93980000D03*
X148590000Y-93980000D03*
X146045000Y-93980000D03*
X144145000Y-93980000D03*
D16*
X152400000Y-84140000D03*
X152400000Y-86040000D03*
X152400000Y-88900000D03*
X152400000Y-90800000D03*
D17*
X145610000Y-84140000D03*
X145610000Y-85090000D03*
X145610000Y-86040000D03*
X149030000Y-86040000D03*
X149030000Y-84140000D03*
M02*
